<?xml version="1.0"?>
<svg xmlns="http://www.w3.org/2000/svg" xmlns:xlink="http://www.w3.org/1999/xlink" xmlns:svgjs="http://svgjs.com/svgjs" version="1.1" width="512" height="512" x="0" y="0" viewBox="0 0 24 24" style="enable-background:new 0 0 512 512" xml:space="preserve" class=""><g><path xmlns="http://www.w3.org/2000/svg" d="m9.25 0h-7.5c-.965 0-1.75.785-1.75 1.75v4.5c0 .965.785 1.75 1.75 1.75h7.5c.965 0 1.75-.785 1.75-1.75v-4.5c0-.965-.785-1.75-1.75-1.75z" fill="#2196f3" data-original="#2196f3" style="" class=""/><path xmlns="http://www.w3.org/2000/svg" d="m9.25 10h-7.5c-.965 0-1.75.785-1.75 1.75v10.5c0 .965.785 1.75 1.75 1.75h7.5c.965 0 1.75-.785 1.75-1.75v-10.5c0-.965-.785-1.75-1.75-1.75z" fill="#1976d2" data-original="#1976d2" style="" class=""/><path xmlns="http://www.w3.org/2000/svg" d="m5.5 0h-3.75c-.965 0-1.75.785-1.75 1.75v4.5c0 .965.785 1.75 1.75 1.75h3.75z" fill="#1d83d4" data-original="#1d83d4" style="" class=""/><path xmlns="http://www.w3.org/2000/svg" d="m5.5 10h-3.75c-.965 0-1.75.785-1.75 1.75v10.5c0 .965.785 1.75 1.75 1.75h3.75z" fill="#1667b7" data-original="#1667b7" style="" class=""/><path xmlns="http://www.w3.org/2000/svg" d="m22.25 16h-7.5c-.965 0-1.75.785-1.75 1.75v4.5c0 .965.785 1.75 1.75 1.75h7.5c.965 0 1.75-.785 1.75-1.75v-4.5c0-.965-.785-1.75-1.75-1.75z" fill="#2196f3" data-original="#2196f3" style="" class=""/><path xmlns="http://www.w3.org/2000/svg" d="m22.25 0h-7.5c-.965 0-1.75.785-1.75 1.75v10.5c0 .965.785 1.75 1.75 1.75h7.5c.965 0 1.75-.785 1.75-1.75v-10.5c0-.965-.785-1.75-1.75-1.75z" fill="#1976d2" data-original="#1976d2" style="" class=""/><path xmlns="http://www.w3.org/2000/svg" d="m18.5 16h-3.75c-.965 0-1.75.785-1.75 1.75v4.5c0 .965.785 1.75 1.75 1.75h3.75z" fill="#1d83d4" data-original="#1d83d4" style="" class=""/><path xmlns="http://www.w3.org/2000/svg" d="m18.5 0h-3.75c-.965 0-1.75.785-1.75 1.75v10.5c0 .965.785 1.75 1.75 1.75h3.75z" fill="#1667b7" data-original="#1667b7" style="" class=""/></g></svg>
